<svg width="1440" height="465" viewBox="0 0 1440 465" fill="none" xmlns="http://www.w3.org/2000/svg">
<path d="M0 422.51C202.563 422.51 347.231 387.633 480 389.758C789.192 394.705 643.192 247.682 960 247.682C1304.96 247.682 1222.4 118 1440 118" stroke="#5F82FF" stroke-width="3"/>
<path d="M480 389.758C347.231 387.633 202.563 422.51 0 422.51V465H1440V118C1222.4 118 1304.96 247.682 960 247.682C643.192 247.682 789.192 394.705 480 389.758Z" fill="url(#paint0_linear_6_26)" fill-opacity="0.4"/>
<line x1="923.859" y1="200" x2="923.859" y2="389" stroke="#D8E0F7"/>
<g filter="url(#filter0_d_6_26)">
<ellipse cx="923.859" cy="248.5" rx="7.4948" ry="7.5" fill="white"/>
<path d="M930.353 248.5C930.353 252.091 927.445 255 923.859 255C920.272 255 917.364 252.091 917.364 248.5C917.364 244.909 920.272 242 923.859 242C927.445 242 930.353 244.909 930.353 248.5Z" stroke="#5E80FE" stroke-width="2"/>
</g>
<line x1="1331.58" x2="1331.58" y2="317" stroke="#D8E0F7"/>
<g filter="url(#filter1_d_6_26)">
<ellipse cx="1331.58" cy="134.5" rx="7.4948" ry="7.5" fill="white"/>
<path d="M1338.07 134.5C1338.07 138.091 1335.16 141 1331.58 141C1327.99 141 1325.08 138.091 1325.08 134.5C1325.08 130.909 1327.99 128 1331.58 128C1335.16 128 1338.07 130.909 1338.07 134.5Z" stroke="#5E80FE" stroke-width="2"/>
</g>
<line x1="515.143" y1="378" x2="515.143" y2="437" stroke="#D8E0F7"/>
<line x1="107.426" y1="262" x2="107.426" y2="452" stroke="#D8E0F7"/>
<g filter="url(#filter2_d_6_26)">
<ellipse cx="107.425" cy="419.5" rx="7.4948" ry="7.5" fill="white"/>
<path d="M113.92 419.5C113.92 423.091 111.012 426 107.425 426C103.839 426 100.931 423.091 100.931 419.5C100.931 415.909 103.839 413 107.425 413C111.012 413 113.92 415.909 113.92 419.5Z" stroke="#5E80FE" stroke-width="2"/>
</g>
<defs>
<filter id="filter0_d_6_26" x="901.364" y="226" width="44.9895" height="45" filterUnits="userSpaceOnUse" color-interpolation-filters="sRGB">
<feFlood flood-opacity="0" result="BackgroundImageFix"/>
<feColorMatrix in="SourceAlpha" type="matrix" values="0 0 0 0 0 0 0 0 0 0 0 0 0 0 0 0 0 0 127 0" result="hardAlpha"/>
<feOffset/>
<feGaussianBlur stdDeviation="7.5"/>
<feColorMatrix type="matrix" values="0 0 0 0 0.323144 0 0 0 0 0.512664 0 0 0 0 1 0 0 0 0.25 0"/>
<feBlend mode="normal" in2="BackgroundImageFix" result="effect1_dropShadow_6_26"/>
<feBlend mode="normal" in="SourceGraphic" in2="effect1_dropShadow_6_26" result="shape"/>
</filter>
<filter id="filter1_d_6_26" x="1309.08" y="112" width="44.9895" height="45" filterUnits="userSpaceOnUse" color-interpolation-filters="sRGB">
<feFlood flood-opacity="0" result="BackgroundImageFix"/>
<feColorMatrix in="SourceAlpha" type="matrix" values="0 0 0 0 0 0 0 0 0 0 0 0 0 0 0 0 0 0 127 0" result="hardAlpha"/>
<feOffset/>
<feGaussianBlur stdDeviation="7.5"/>
<feColorMatrix type="matrix" values="0 0 0 0 0.323144 0 0 0 0 0.512664 0 0 0 0 1 0 0 0 0.25 0"/>
<feBlend mode="normal" in2="BackgroundImageFix" result="effect1_dropShadow_6_26"/>
<feBlend mode="normal" in="SourceGraphic" in2="effect1_dropShadow_6_26" result="shape"/>
</filter>
<filter id="filter2_d_6_26" x="84.9307" y="397" width="44.9895" height="45" filterUnits="userSpaceOnUse" color-interpolation-filters="sRGB">
<feFlood flood-opacity="0" result="BackgroundImageFix"/>
<feColorMatrix in="SourceAlpha" type="matrix" values="0 0 0 0 0 0 0 0 0 0 0 0 0 0 0 0 0 0 127 0" result="hardAlpha"/>
<feOffset/>
<feGaussianBlur stdDeviation="7.5"/>
<feColorMatrix type="matrix" values="0 0 0 0 0.323144 0 0 0 0 0.512664 0 0 0 0 1 0 0 0 0.25 0"/>
<feBlend mode="normal" in2="BackgroundImageFix" result="effect1_dropShadow_6_26"/>
<feBlend mode="normal" in="SourceGraphic" in2="effect1_dropShadow_6_26" result="shape"/>
</filter>
<linearGradient id="paint0_linear_6_26" x1="278.273" y1="465.443" x2="278.273" y2="10.0051" gradientUnits="userSpaceOnUse">
<stop stop-color="#4B71FF" stop-opacity="0"/>
<stop offset="1" stop-color="#6B89F8"/>
</linearGradient>
</defs>
</svg>
